<svg id="Layer_1" data-name="Layer 1" xmlns="http://www.w3.org/2000/svg" viewBox="0 0 17.94 17.94"><defs><style>.cls-1{fill:#fff;}.cls-2{fill:#98eacd;}</style></defs><title>briefcase</title><path d="M16.06,30.88V21.42l0,0a1.85,1.85,0,0,1,2-1.59H22c0-.4,0-.76,0-1.13a1.12,1.12,0,0,1,1.1-1.11h3.76A1.12,1.12,0,0,1,28,18.67c0,.31,0,.62,0,.93,0,.06,0,.12,0,.2h.22c1.32,0,2.65,0,4,0a1.79,1.79,0,0,1,1.67,1.25c0,.12.07.24.1.37v9.46a4.48,4.48,0,0,1-.32.79A1.83,1.83,0,0,1,32,32.5H17.82a1.83,1.83,0,0,1-1.69-1.36Zm17.19-7.26-.18.06-6.89,2.4a7.46,7.46,0,0,0-1,.36.58.58,0,0,1-.51,0L17,23.79l-.2-.06c0,.07,0,.11,0,.15q0,3.35,0,6.71A1.14,1.14,0,0,0,18,31.76H32.06l.24,0a1.16,1.16,0,0,0,.95-1.19q0-3.37,0-6.74ZM25,20.55H18a1.15,1.15,0,0,0-1.2,1.2c0,.31,0,.62,0,.93a.22.22,0,0,0,.18.26l7.71,2.73a.92.92,0,0,0,.67,0l7.71-2.73a.22.22,0,0,0,.18-.26c0-.3,0-.6,0-.89A1.15,1.15,0,0,0,32,20.55Zm-2.24-.76h4.48c0-.35,0-.68,0-1s-.11-.47-.47-.47H23.17a.34.34,0,0,0-.37.34C22.78,19,22.79,19.4,22.79,19.79Z" transform="translate(-16.06 -16.06)"/><path class="cls-1" d="M34,21.42c0-.12-.06-.25-.1-.37a1.79,1.79,0,0,0-1.67-1.25c-1.32,0-2.65,0-4,0H28c0-.08,0-.14,0-.2,0-.31,0-.62,0-.93a1.12,1.12,0,0,0-1.1-1.11H23.15A1.12,1.12,0,0,0,22,18.67c0,.37,0,.73,0,1.13H18.1a1.85,1.85,0,0,0-2,1.59l0,0V16.06H34Z" transform="translate(-16.06 -16.06)"/><path class="cls-1" d="M16.06,30.88l.07.25a1.83,1.83,0,0,0,1.69,1.36H32a1.83,1.83,0,0,0,1.67-.84,4.48,4.48,0,0,0,.32-.79V34H16.06Z" transform="translate(-16.06 -16.06)"/><path class="cls-1" d="M33.26,23.62v.18q0,3.37,0,6.74a1.16,1.16,0,0,1-.95,1.19l-.24,0H18a1.14,1.14,0,0,1-1.19-1.18q0-3.35,0-6.71s0-.08,0-.15l.2.06,7.68,2.67a.58.58,0,0,0,.51,0,7.46,7.46,0,0,1,1-.36l6.89-2.4Z" transform="translate(-16.06 -16.06)"/><path class="cls-1" d="M25,20.55h7a1.15,1.15,0,0,1,1.24,1.24c0,.3,0,.6,0,.89a.22.22,0,0,1-.18.26l-7.71,2.73a.92.92,0,0,1-.67,0L17,22.93a.22.22,0,0,1-.18-.26c0-.31,0-.62,0-.93a1.15,1.15,0,0,1,1.2-1.2Z" transform="translate(-16.06 -16.06)"/><path class="cls-2" d="M22.79,19.8c0-.39,0-.77,0-1.15a.34.34,0,0,1,.37-.34H26.8c.36,0,.47.11.47.48s0,.67,0,1Z" transform="translate(-16.06 -16.06)"/></svg>