<svg id="Layer_1" data-name="Layer 1" xmlns="http://www.w3.org/2000/svg" viewBox="0 0 31.34 30.3"><defs><style>.cls-1{fill:#98eacd;}</style></defs><title>get hired</title><path class="cls-1" d="M21.62,22.93a2.64,2.64,0,0,1,3.26-.05,2.61,2.61,0,0,1,3.63-.39l.23-.22,3.4-3.4a1.59,1.59,0,0,1,2.49,0l5.52,5.52a1.6,1.6,0,0,1,0,2.51l-1.41,1.41a1.63,1.63,0,0,1-2.52.13l-.17.15c-1.22,1.22-2.44,2.43-3.65,3.66a.73.73,0,0,0-.19.42,1.63,1.63,0,0,1-1.33,1.48c-.21,0-.3.1-.34.33a1.51,1.51,0,0,1-1.17,1.27c-.13,0-.26.05-.39.08a1.63,1.63,0,0,1-1.6,1.61c-.31,1.27-.76,1.62-2.05,1.57-.5,1-1.08,1.37-1.86,1.26A1.72,1.72,0,0,1,22,38.66,1.69,1.69,0,0,1,20.39,37a1.62,1.62,0,0,1-1.26-.67,6.09,6.09,0,0,1-.34-.77c0-.08-.12-.2-.19-.21a1.66,1.66,0,0,1-1-2.76l.06-.08L14,28.85l-.22.17a1.48,1.48,0,0,1-1.94,0c-.7-.64-1.37-1.31-2-2a1.48,1.48,0,0,1,0-2c.08-.09.16-.18.25-.27l5.47-5.47a1.63,1.63,0,0,1,2.56,0Zm.49,12.38a1.58,1.58,0,0,1,1.49,1.14.79.79,0,0,0,.6.6,4,4,0,0,1,1,.75.63.63,0,0,0,1.07-.26.68.68,0,0,0-.24-.68l-3-3a1.62,1.62,0,0,1-.22-.25.51.51,0,0,1,.69-.71,1.47,1.47,0,0,1,.28.24L26.67,36a2,2,0,0,0,.3.26.64.64,0,0,0,.77,0,.61.61,0,0,0,.09-.73,1.74,1.74,0,0,0-.28-.36L24.7,32.26a1.71,1.71,0,0,1-.25-.27.51.51,0,0,1,.69-.72,1.24,1.24,0,0,1,.25.22l2.9,2.9a2,2,0,0,0,.3.26.64.64,0,0,0,.76-.06.61.61,0,0,0,.08-.76,2,2,0,0,0-.29-.35l-2.83-2.84a1.55,1.55,0,0,1-.23-.25.49.49,0,0,1,0-.65.48.48,0,0,1,.64-.09,1.34,1.34,0,0,1,.25.22L30,32.8a1.64,1.64,0,0,0,.3.25.5.5,0,0,0,.62,0,.8.8,0,0,0,.26-.54,1,1,0,0,0-.31-.56Q28.37,29.45,25.9,27l-.21-.19-.23.22c-.46.46-.92.93-1.39,1.38A1.66,1.66,0,1,1,21.75,26c.7-.72,1.42-1.43,2.14-2.14a1.42,1.42,0,0,1,.32-.17,1.5,1.5,0,0,0-2,.13c-.4.42-.63.42-1,0L20.09,22.8l-5.33,5.34h0L18.6,32a.51.51,0,0,0,.29.13,1.59,1.59,0,0,1,1.56,1.41.29.29,0,0,0,.17.2A1.69,1.69,0,0,1,22.11,35.31Zm13.3-7.62L30.1,22.37c-.38.38-.77.79-1.16,1.18a.53.53,0,0,1-.85,0,1.49,1.49,0,0,0-2.35,0l-3.16,3.15a1.49,1.49,0,0,0-.24.28.59.59,0,0,0,0,.66.52.52,0,0,0,.61.24,1.16,1.16,0,0,0,.46-.27c.61-.6,1.21-1.21,1.82-1.81a.56.56,0,0,1,.76-.15,1.49,1.49,0,0,0,2.1-.31.52.52,0,0,1,.72-.07.48.48,0,0,1,.06.73,7.43,7.43,0,0,1-1,.77,1.94,1.94,0,0,1-.48.18l4.39,4.39Zm-4.55-6.06c.23.21.44.39.63.58l5.41,5.4c.42.42.65.42,1.08,0l1.51-1.51a.55.55,0,0,0,0-.88l-.09-.09-5.52-5.51c-.36-.36-.61-.39-.92-.09C32.28,20.2,31.6,20.89,30.86,21.63ZM19.29,22l-2-2a.56.56,0,0,0-.94,0l-5.6,5.6c-.34.34-.34.6,0,.94L12.2,28c.45.44.65.45,1.1,0l5.77-5.77Zm4.4,16a.61.61,0,0,0-.62.58.63.63,0,0,0,.6.64.64.64,0,0,0,.63-.62A.61.61,0,0,0,23.69,38Zm-4.86-3.64a.61.61,0,0,0,.61-.6.65.65,0,0,0-.63-.62.64.64,0,0,0-.61.61A.61.61,0,0,0,18.83,34.35Zm1.61.41a.61.61,0,0,0-.62.62.61.61,0,0,0,1.23,0A.61.61,0,0,0,20.45,34.75Zm1.62,2.83a.61.61,0,0,0,.62-.59.62.62,0,1,0-1.24,0A.62.62,0,0,0,22.06,37.59Z" transform="translate(-9.42 -9.97)"/><path class="cls-1" d="M22.46,14.15c0,.72,0,1.41,0,2.11,0,.17,0,.35,0,.52a.51.51,0,0,1-.51.5.51.51,0,0,1-.52-.5,2,2,0,0,1,0-.21q0-2.94,0-5.87c0-.54.17-.71.71-.71h1.71A2.11,2.11,0,0,1,26,11.55,2.07,2.07,0,0,1,24.89,14l-.07.06.12.26L26,16.41c.18.36.11.67-.18.82s-.57,0-.76-.35c-.42-.83-.84-1.65-1.24-2.49a.36.36,0,0,0-.4-.24C23.12,14.16,22.81,14.15,22.46,14.15Zm0-1c.56,0,1.09,0,1.62,0a1,1,0,0,0,1-1A1,1,0,0,0,24.22,11c-.57-.05-1.15,0-1.74,0Z" transform="translate(-9.42 -9.97)"/><path class="cls-1" d="M31.87,13.63c0-1,0-2,0-3,0-.51.17-.68.68-.68h1.38a2.59,2.59,0,0,1,2.62,2.46c0,.77,0,1.55,0,2.32a2.6,2.6,0,0,1-2.63,2.52H32.48c-.43,0-.61-.19-.61-.62C31.87,15.65,31.87,14.64,31.87,13.63ZM32.93,11v5.2c.38,0,.75,0,1.11,0a1.49,1.49,0,0,0,1.45-1.42c0-.78,0-1.57,0-2.35A1.49,1.49,0,0,0,34.11,11C33.73,11,33.34,11,32.93,11Z" transform="translate(-9.42 -9.97)"/><path class="cls-1" d="M27.7,16.23h2.83a2,2,0,0,1,.39,0,.47.47,0,0,1,.4.5.49.49,0,0,1-.45.5l-.24,0h-3.3c-.52,0-.7-.18-.7-.7q0-3,0-5.9c0-.52.19-.7.7-.7h3.43a.52.52,0,0,1,.57.51.53.53,0,0,1-.56.53H27.7V13.1h3c.39,0,.63.21.63.52s-.23.52-.62.52h-3Z" transform="translate(-9.42 -9.97)"/><path class="cls-1" d="M14.63,13.09h2.62c0-.11,0-.22,0-.33,0-.71,0-1.43,0-2.14,0-.4.18-.63.5-.64s.54.24.54.64q0,3,0,6c0,.4-.2.62-.52.63s-.52-.22-.52-.62c0-.71,0-1.43,0-2.14,0-.11,0-.22,0-.35H14.63c0,.55,0,1.09,0,1.62,0,.33,0,.65,0,1a.5.5,0,0,1-.51.5.51.51,0,0,1-.52-.49,1.94,1.94,0,0,1,0-.21q0-2.94,0-5.87c0-.06,0-.12,0-.18a.53.53,0,0,1,.53-.53.52.52,0,0,1,.51.54c0,.67,0,1.35,0,2C14.63,12.71,14.63,12.88,14.63,13.09Z" transform="translate(-9.42 -9.97)"/><path class="cls-1" d="M19.33,13.62q0-1.47,0-2.93a1.26,1.26,0,0,1,0-.3.49.49,0,0,1,.48-.4.47.47,0,0,1,.49.33,1.12,1.12,0,0,1,0,.36q0,2.95,0,5.9a1.47,1.47,0,0,1,0,.24.51.51,0,0,1-.55.46.5.5,0,0,1-.47-.5c0-.33,0-.65,0-1Q19.33,14.7,19.33,13.62Z" transform="translate(-9.42 -9.97)"/><path class="cls-1" d="M38,25.65a.57.57,0,1,1-.56-.57A.57.57,0,0,1,38,25.65Z" transform="translate(-9.42 -9.97)"/><path class="cls-1" d="M13.32,26a.58.58,0,0,1-.55.58.57.57,0,0,1-.59-.57.57.57,0,0,1,.57-.56A.58.58,0,0,1,13.32,26Z" transform="translate(-9.42 -9.97)"/></svg>