<svg id="Layer_1" data-name="Layer 1" xmlns="http://www.w3.org/2000/svg" viewBox="0 0 25.99 26.01"><defs><style>.cls-1{fill:#98eacd;}</style></defs><title>messages</title><path class="cls-1" d="M22.72,12c.41.07.81.12,1.22.2a10.18,10.18,0,0,1,7.88,8,10,10,0,0,1-7.52,11.4,9.55,9.55,0,0,1-5.95-.38.34.34,0,0,0-.36,0,5,5,0,0,1-5.42.33.77.77,0,0,1-.35-1.13,5.73,5.73,0,0,0,.54-4.85c-.27-.87-.45-1.77-.67-2.65,0-.15-.05-.3-.08-.45V21.29c.09-.52.13-1,.26-1.54a9.89,9.89,0,0,1,7.59-7.5c.47-.12,1-.17,1.44-.25ZM14,30.57l.23.06a3.49,3.49,0,0,0,3.16-.82.92.92,0,0,1,1.11-.17,8.07,8.07,0,0,0,4.8.64,8.42,8.42,0,0,0-2.12-16.7,8.25,8.25,0,0,0-6.74,4.67,7.43,7.43,0,0,0-.79,4.7,17.59,17.59,0,0,0,.58,2.23,7.39,7.39,0,0,1,.21,4C14.32,29.63,14.14,30.09,14,30.57Z" transform="translate(-12 -12)"/><path class="cls-1" d="M36,36.31c-.16-.53-.34-1-.46-1.51a6.69,6.69,0,0,1,.28-3.91,8.4,8.4,0,0,0-1.27-8.56.8.8,0,0,1,0-1.15.78.78,0,0,1,1.15.18,10.1,10.1,0,0,1,1.54,10,5.31,5.31,0,0,0,.44,4.75.8.8,0,0,1,.11.81,1.06,1.06,0,0,1-.41.43,5,5,0,0,1-5.37-.3.44.44,0,0,0-.46-.05,10,10,0,0,1-10.06-1.7.77.77,0,1,1,1-1.18,8.46,8.46,0,0,0,5.74,2,7.9,7.9,0,0,0,3.21-.74,1,1,0,0,1,1.15.18A3.54,3.54,0,0,0,36,36.31Z" transform="translate(-12 -12)"/><path class="cls-1" d="M17.48,23.23A1.21,1.21,0,0,1,16.27,22a1.22,1.22,0,0,1,2.44,0A1.21,1.21,0,0,1,17.48,23.23Z" transform="translate(-12 -12)"/><path class="cls-1" d="M22,23.23A1.21,1.21,0,0,1,20.77,22,1.22,1.22,0,0,1,22,20.79,1.24,1.24,0,0,1,23.21,22,1.22,1.22,0,0,1,22,23.23Z" transform="translate(-12 -12)"/><path class="cls-1" d="M27.71,22a1.2,1.2,0,0,1-1.23,1.21A1.22,1.22,0,0,1,25.27,22a1.24,1.24,0,0,1,1.23-1.23A1.22,1.22,0,0,1,27.71,22Z" transform="translate(-12 -12)"/></svg>