<svg id="Layer_1" data-name="Layer 1" xmlns="http://www.w3.org/2000/svg" viewBox="0 0 25.5 33.5"><defs><style>.cls-1{fill:#98eacd;}.cls-2{fill:#fff;}.cls-2,.cls-3{stroke:#000;stroke-miterlimit:10;stroke-width:0.5px;}.cls-3{fill:none;}</style></defs><title>profile</title><path class="cls-1" d="M25.21,12.84l.47.09a2.9,2.9,0,0,1,2.11,2.34,2.87,2.87,0,0,1-2.66,3.32,2.88,2.88,0,0,1-.78-5.69l.33-.06Z" transform="translate(-11.88 -8.25)"/><path class="cls-1" d="M25,24.79H22.18a2.23,2.23,0,0,1-1.34-.38,1.77,1.77,0,0,1-.77-1.33,6.22,6.22,0,0,1,.4-2.88,2.44,2.44,0,0,1,1.1-1.32,2.19,2.19,0,0,1,1.09-.26.83.83,0,0,1,.36.12c.18.1.35.22.52.33a2.66,2.66,0,0,0,3,0c.14-.09.28-.17.41-.27a1,1,0,0,1,.79-.16,2.22,2.22,0,0,1,1.69,1.21,5,5,0,0,1,.55,1.94,9.44,9.44,0,0,1,0,1,1.91,1.91,0,0,1-1.79,1.95l-.38,0Z" transform="translate(-11.88 -8.25)"/><line class="cls-2" x1="5.74" y1="21.82" x2="13.88" y2="21.82"/><line class="cls-2" x1="5.74" y1="23.79" x2="10.29" y2="23.79"/><line class="cls-2" x1="5.74" y1="25.77" x2="9" y2="25.77"/><rect class="cls-3" x="0.25" y="0.25" width="25" height="33" rx="2.69" ry="2.69"/></svg>