<svg id="Layer_1" data-name="Layer 1" xmlns="http://www.w3.org/2000/svg" viewBox="0 0 28.05 25.14"><defs><style>.cls-1{fill:#98eacd;}</style></defs><title>relevant candidates</title><path class="cls-1" d="M11,37c.09-.58.17-1.17.28-1.75a7.51,7.51,0,0,1,.87-2.6,2,2,0,0,1,.8-.73,39.13,39.13,0,0,1,4.59-2,.68.68,0,0,0,.49-.5,5,5,0,0,1,.22-.67.94.94,0,0,1,.26-.43.54.54,0,0,0,.23-.53,3.15,3.15,0,0,0-.41-1.59A7.6,7.6,0,0,1,17.94,25c-.07-.22-.2-.42-.29-.63a4.17,4.17,0,0,1-.3-.75,5.88,5.88,0,0,1-.08-1c0-.26,0-.51.34-.56,0-.52,0-1,0-1.53a2.77,2.77,0,0,1,2.1-3.05,1.22,1.22,0,0,0,.83-.88A5.68,5.68,0,0,1,25,12.53a4.82,4.82,0,0,1,1-.09c2.48,0,5,0,7.42,0A5.81,5.81,0,0,1,35,23.79a7.85,7.85,0,0,1-1.5.27.84.84,0,0,0-.55.24q-1.4,1.41-2.82,2.8A1.14,1.14,0,0,1,28.32,27a1.69,1.69,0,0,1-.25-.84c0-.66,0-1.33,0-2a.61.61,0,0,0,0-.09H26.47c-.16,0-.38,0-.47.05a2.29,2.29,0,0,0-.42.68c-.08.18-.05.4-.11.59a4.72,4.72,0,0,1-.36.93,3,3,0,0,0-.32,1.72.22.22,0,0,0,.08.16.93.93,0,0,1,.44.7,1.5,1.5,0,0,0,1.14,1.22c1.32.5,2.59,1.12,3.89,1.67a2.48,2.48,0,0,1,1.35,1.47,12.63,12.63,0,0,1,.72,3c0,.3.07.6.1.9s-.08.38-.36.4H11.46a.53.53,0,0,1-.48-.18ZM29.46,25.78l.25-.24c.8-.8,1.62-1.58,2.4-2.4a1.38,1.38,0,0,1,1.09-.46,4.43,4.43,0,1,0-.09-8.85H26.31a4.47,4.47,0,0,0-3.77,1.82A3.85,3.85,0,0,0,21.88,17a3.49,3.49,0,0,1,.64,0,4.22,4.22,0,0,1,1.14.31c.44.23.8.61,1.22.87a1.89,1.89,0,0,1,1,1.63c0,.7,0,1.4,0,2.11,0,.07,0,.2,0,.21.3.1.32.37.35.64h3.21Z" transform="translate(-10.97 -12.43)"/><path class="cls-1" d="M30.18,18.09a.87.87,0,1,1,0,1.74.87.87,0,0,1,0-1.74Z" transform="translate(-10.97 -12.43)"/><path class="cls-1" d="M33.87,19a.87.87,0,1,1-.88-.86A.88.88,0,0,1,33.87,19Z" transform="translate(-10.97 -12.43)"/><ellipse class="cls-1" cx="27.39" cy="18.96" rx="0.87" ry="0.87" transform="translate(-2.84 33.71) rotate(-89.39)"/></svg>